# xmcd
#
# Track frame offsets: 
#        150
#        14269
#        34736
#        60434
#
# Disc length: 1096 seconds
#
# Revision: 0
# Processed by: cddbd v1.5.2PL0 Copyright (c) Steve Scherf et al.
# Submitted via: ExactAudioCopy v0.99pb3
#
DISCID=26044604
DTITLE=Righteous Movement - While You Wait EP
DYEAR=2006
DGENRE=Hip-Hop
TTITLE0=Up Rock
TTITLE1=What's a Man?
TTITLE2=Natural
TTITLE3=On the Road
EXTD=
EXTT0=
EXTT1=
EXTT2=
EXTT3=
PLAYORDER=
